<mxfile host="www.draw.io" modified="2019-11-21T06:45:47.147Z" agent="Mozilla/5.0 (Macintosh; Intel Mac OS X 10_13_6) AppleWebKit/537.36 (KHTML, like Gecko) Chrome/78.0.3904.108 Safari/537.36" etag="GMQp_A52QGfL6XXe0B2A" version="12.2.7" type="github" pages="5">
  <diagram name="Page-1" id="c7558073-3199-34d8-9f00-42111426c3f3">
    <mxGraphModel dx="926" dy="571" grid="1" gridSize="10" guides="1" tooltips="1" connect="1" arrows="1" fold="1" page="1" pageScale="1" pageWidth="826" pageHeight="1169" background="#ffffff" math="0" shadow="0">
      <root>
        <mxCell id="0"/>
        <mxCell id="1" parent="0"/>
        <mxCell id="wxR6bo94Sk2iI8-Y_fi0-96" value="" style="rounded=0;whiteSpace=wrap;html=1;dashed=1;dashPattern=1 1;fillColor=none;" parent="1" vertex="1">
          <mxGeometry x="80" y="180" width="650" height="400" as="geometry"/>
        </mxCell>
        <mxCell id="wxR6bo94Sk2iI8-Y_fi0-172" value="" style="edgeStyle=orthogonalEdgeStyle;rounded=0;orthogonalLoop=1;jettySize=auto;html=1;strokeColor=#7D0040;strokeWidth=2;entryX=0.212;entryY=-0.293;entryDx=0;entryDy=0;entryPerimeter=0;" parent="1" source="3" target="wxR6bo94Sk2iI8-Y_fi0-142" edge="1">
          <mxGeometry relative="1" as="geometry">
            <mxPoint x="288" y="451" as="targetPoint"/>
          </mxGeometry>
        </mxCell>
        <mxCell id="wxR6bo94Sk2iI8-Y_fi0-174" value="join/unjoin" style="text;html=1;resizable=0;points=[];align=center;verticalAlign=middle;labelBackgroundColor=#ffffff;" parent="wxR6bo94Sk2iI8-Y_fi0-172" vertex="1" connectable="0">
          <mxGeometry x="0.0277" y="29" relative="1" as="geometry">
            <mxPoint x="8.5" y="-25" as="offset"/>
          </mxGeometry>
        </mxCell>
        <mxCell id="3" value="fed-controller" style="whiteSpace=wrap;align=center;verticalAlign=middle;fontStyle=1;strokeWidth=3;fillColor=#d5e8d4;strokeColor=#82b366;" parent="1" vertex="1">
          <mxGeometry x="243" y="311" width="90" height="60" as="geometry"/>
        </mxCell>
        <mxCell id="4" value="crd&#xa;alauda-fed" style="whiteSpace=wrap;align=center;verticalAlign=middle;fontStyle=1;strokeWidth=3;fillColor=#FFFFCC" parent="1" vertex="1">
          <mxGeometry x="90" y="421" width="86" height="60" as="geometry"/>
        </mxCell>
        <mxCell id="81" value="" style="edgeStyle=elbowEdgeStyle;elbow=horizontal;exitX=0;exitY=0.5;strokeColor=#990000;strokeWidth=2;exitDx=0;exitDy=0;entryX=0.5;entryY=0;entryDx=0;entryDy=0;" parent="1" source="3" target="4" edge="1">
          <mxGeometry width="100" height="100" relative="1" as="geometry">
            <mxPoint x="380" y="91" as="sourcePoint"/>
            <mxPoint x="480" y="-9" as="targetPoint"/>
            <Array as="points">
              <mxPoint x="133" y="361"/>
              <mxPoint x="280" y="391"/>
              <mxPoint x="130" y="331"/>
              <mxPoint x="130" y="361"/>
              <mxPoint x="430" y="-9"/>
            </Array>
          </mxGeometry>
        </mxCell>
        <mxCell id="wxR6bo94Sk2iI8-Y_fi0-104" value="watch" style="text;html=1;resizable=0;points=[];align=center;verticalAlign=middle;labelBackgroundColor=#ffffff;" parent="81" vertex="1" connectable="0">
          <mxGeometry x="0.1059" y="1" relative="1" as="geometry">
            <mxPoint x="66.5" y="8.5" as="offset"/>
          </mxGeometry>
        </mxCell>
        <mxCell id="wxR6bo94Sk2iI8-Y_fi0-97" value="&lt;b&gt;&lt;font style=&quot;font-size: 16px&quot;&gt;Global&lt;/font&gt;&lt;/b&gt;" style="text;html=1;resizable=0;autosize=1;align=center;verticalAlign=middle;points=[];fillColor=none;strokeColor=none;rounded=0;dashed=1;dashPattern=1 1;" parent="1" vertex="1">
          <mxGeometry x="272.5" y="190" width="70" height="20" as="geometry"/>
        </mxCell>
        <mxCell id="wxR6bo94Sk2iI8-Y_fi0-101" value="crd&#xa;alauda-fed" style="whiteSpace=wrap;align=center;verticalAlign=middle;fontStyle=1;strokeWidth=3;fillColor=#FFFFCC" parent="1" vertex="1">
          <mxGeometry x="374" y="421" width="86" height="60" as="geometry"/>
        </mxCell>
        <mxCell id="wxR6bo94Sk2iI8-Y_fi0-103" value="" style="edgeStyle=elbowEdgeStyle;elbow=horizontal;exitX=1;exitY=0.5;strokeColor=#990000;strokeWidth=2;exitDx=0;exitDy=0;entryX=0.5;entryY=0;entryDx=0;entryDy=0;" parent="1" source="3" target="wxR6bo94Sk2iI8-Y_fi0-101" edge="1">
          <mxGeometry width="100" height="100" relative="1" as="geometry">
            <mxPoint x="246.14285714285734" y="281.28571428571445" as="sourcePoint"/>
            <mxPoint x="417" y="381" as="targetPoint"/>
            <Array as="points">
              <mxPoint x="418" y="380"/>
              <mxPoint x="290" y="401"/>
              <mxPoint x="140" y="341"/>
              <mxPoint x="140" y="371"/>
              <mxPoint x="440" y="1"/>
            </Array>
          </mxGeometry>
        </mxCell>
        <mxCell id="wxR6bo94Sk2iI8-Y_fi0-105" value="watch" style="text;html=1;resizable=0;points=[];align=center;verticalAlign=middle;labelBackgroundColor=#ffffff;" parent="1" vertex="1" connectable="0">
          <mxGeometry x="300.2142857142858" y="340.78571428571445" as="geometry">
            <mxPoint x="66.5" y="8.5" as="offset"/>
          </mxGeometry>
        </mxCell>
        <mxCell id="wxR6bo94Sk2iI8-Y_fi0-106" value="cluster" style="whiteSpace=wrap;align=center;verticalAlign=middle;fontStyle=1;strokeWidth=3;fillColor=#FFFFCC" parent="1" vertex="1">
          <mxGeometry x="489" y="190" width="75" height="50" as="geometry"/>
        </mxCell>
        <mxCell id="wxR6bo94Sk2iI8-Y_fi0-107" value="&lt;font size=&quot;1&quot;&gt;&lt;b style=&quot;font-size: 32px&quot;&gt;...&lt;/b&gt;&lt;/font&gt;" style="text;html=1;resizable=0;autosize=1;align=center;verticalAlign=middle;points=[];fillColor=none;strokeColor=none;rounded=0;dashed=1;dashPattern=1 1;" parent="1" vertex="1">
          <mxGeometry x="216" y="436" width="40" height="30" as="geometry"/>
        </mxCell>
        <mxCell id="wxR6bo94Sk2iI8-Y_fi0-108" value="cluster" style="whiteSpace=wrap;align=center;verticalAlign=middle;fontStyle=1;strokeWidth=3;fillColor=#FFFFCC" parent="1" vertex="1">
          <mxGeometry x="499" y="200" width="75" height="50" as="geometry"/>
        </mxCell>
        <mxCell id="wxR6bo94Sk2iI8-Y_fi0-109" value="cluster" style="whiteSpace=wrap;align=center;verticalAlign=middle;fontStyle=1;strokeWidth=3;fillColor=#FFFFCC" parent="1" vertex="1">
          <mxGeometry x="509" y="210" width="75" height="50" as="geometry"/>
        </mxCell>
        <mxCell id="wxR6bo94Sk2iI8-Y_fi0-110" value="cluster" style="whiteSpace=wrap;align=center;verticalAlign=middle;fontStyle=1;strokeWidth=3;fillColor=#FFFFCC" parent="1" vertex="1">
          <mxGeometry x="519" y="220" width="75" height="50" as="geometry"/>
        </mxCell>
        <mxCell id="wxR6bo94Sk2iI8-Y_fi0-111" value="&lt;p style=&quot;margin: 0px ; margin-top: 4px ; text-align: center ; text-decoration: underline&quot;&gt;&lt;strong&gt;前端&lt;/strong&gt;&lt;/p&gt;&lt;hr&gt;&lt;p style=&quot;margin: 0px ; margin-left: 8px&quot;&gt;创建&lt;/p&gt;&lt;p style=&quot;margin: 0px ; margin-left: 8px&quot;&gt;alauda-fed crd&lt;/p&gt;" style="verticalAlign=middle;align=center;overflow=fill;fontSize=12;fontFamily=Helvetica;html=1;rounded=1;fontStyle=1;strokeWidth=3;fillColor=#E6FFCC" parent="1" vertex="1">
          <mxGeometry x="70" y="596" width="110" height="90" as="geometry"/>
        </mxCell>
        <mxCell id="wxR6bo94Sk2iI8-Y_fi0-115" value="" style="edgeStyle=elbowEdgeStyle;elbow=horizontal;strokeColor=#990000;strokeWidth=2;exitX=0.5;exitY=0;exitDx=0;exitDy=0;" parent="1" source="wxR6bo94Sk2iI8-Y_fi0-111" edge="1">
          <mxGeometry width="100" height="100" relative="1" as="geometry">
            <mxPoint x="-106" y="845" as="sourcePoint"/>
            <mxPoint x="125" y="501" as="targetPoint"/>
            <Array as="points">
              <mxPoint x="125" y="491"/>
              <mxPoint x="124" y="705"/>
            </Array>
          </mxGeometry>
        </mxCell>
        <mxCell id="wxR6bo94Sk2iI8-Y_fi0-117" value="标准API" style="text;html=1;resizable=0;points=[];align=center;verticalAlign=middle;labelBackgroundColor=#ffffff;" parent="wxR6bo94Sk2iI8-Y_fi0-115" vertex="1" connectable="0">
          <mxGeometry x="-0.1205" relative="1" as="geometry">
            <mxPoint x="36" y="-3.5" as="offset"/>
          </mxGeometry>
        </mxCell>
        <mxCell id="wxR6bo94Sk2iI8-Y_fi0-118" value="" style="rounded=0;whiteSpace=wrap;html=1;dashed=1;dashPattern=1 1;fillColor=none;" parent="1" vertex="1">
          <mxGeometry x="470" y="600" width="210" height="219" as="geometry"/>
        </mxCell>
        <mxCell id="wxR6bo94Sk2iI8-Y_fi0-123" value="&lt;span style=&quot;font-size: 16px&quot;&gt;&lt;b&gt;Host cluster&lt;/b&gt;&lt;/span&gt;" style="text;html=1;resizable=0;autosize=1;align=center;verticalAlign=middle;points=[];fillColor=none;strokeColor=none;rounded=0;dashed=1;dashPattern=1 1;" parent="1" vertex="1">
          <mxGeometry x="483.5" y="609" width="110" height="20" as="geometry"/>
        </mxCell>
        <mxCell id="wxR6bo94Sk2iI8-Y_fi0-135" value="kubefed v2" style="whiteSpace=wrap;align=center;verticalAlign=middle;fontStyle=1;strokeWidth=3;fillColor=#d5e8d4;strokeColor=#82b366;" parent="1" vertex="1">
          <mxGeometry x="500" y="668.5" width="90" height="61" as="geometry"/>
        </mxCell>
        <mxCell id="wxR6bo94Sk2iI8-Y_fi0-138" value="kubefed v2" style="whiteSpace=wrap;align=center;verticalAlign=middle;fontStyle=1;strokeWidth=3;fillColor=#d5e8d4;strokeColor=#82b366;" parent="1" vertex="1">
          <mxGeometry x="510" y="678.5" width="90" height="61" as="geometry"/>
        </mxCell>
        <mxCell id="wxR6bo94Sk2iI8-Y_fi0-139" value="kubefed v2&#xa;control plane" style="whiteSpace=wrap;align=center;verticalAlign=middle;fontStyle=1;strokeWidth=3;fillColor=#d5e8d4;strokeColor=#82b366;" parent="1" vertex="1">
          <mxGeometry x="520" y="688.5" width="90" height="61" as="geometry"/>
        </mxCell>
        <mxCell id="wxR6bo94Sk2iI8-Y_fi0-141" value="" style="rounded=0;whiteSpace=wrap;html=1;dashed=1;dashPattern=1 1;fillColor=none;" parent="1" vertex="1">
          <mxGeometry x="222" y="600" width="210" height="219" as="geometry"/>
        </mxCell>
        <mxCell id="wxR6bo94Sk2iI8-Y_fi0-142" value="&lt;span style=&quot;font-size: 16px&quot;&gt;&lt;b&gt;Member cluster&lt;/b&gt;&lt;/span&gt;" style="text;html=1;resizable=0;autosize=1;align=center;verticalAlign=middle;points=[];fillColor=none;strokeColor=none;rounded=0;dashed=1;dashPattern=1 1;" parent="1" vertex="1">
          <mxGeometry x="260" y="609" width="130" height="20" as="geometry"/>
        </mxCell>
        <mxCell id="wxR6bo94Sk2iI8-Y_fi0-154" value="helmrequst" style="whiteSpace=wrap;align=center;verticalAlign=middle;fontStyle=1;strokeWidth=3;fillColor=#FFFFCC" parent="1" vertex="1">
          <mxGeometry x="514" y="421" width="75" height="50" as="geometry"/>
        </mxCell>
        <mxCell id="wxR6bo94Sk2iI8-Y_fi0-155" value="helmrequst" style="whiteSpace=wrap;align=center;verticalAlign=middle;fontStyle=1;strokeWidth=3;fillColor=#FFFFCC" parent="1" vertex="1">
          <mxGeometry x="524" y="431" width="75" height="50" as="geometry"/>
        </mxCell>
        <mxCell id="wxR6bo94Sk2iI8-Y_fi0-156" value="captain" style="whiteSpace=wrap;align=center;verticalAlign=middle;fontStyle=1;strokeWidth=3;fillColor=#d5e8d4;strokeColor=#82b366;" parent="1" vertex="1">
          <mxGeometry x="610" y="340" width="90" height="60" as="geometry"/>
        </mxCell>
        <mxCell id="wxR6bo94Sk2iI8-Y_fi0-157" value="" style="edgeStyle=elbowEdgeStyle;elbow=horizontal;exitX=1;exitY=0.5;strokeColor=#990000;strokeWidth=2;exitDx=0;exitDy=0;entryX=0.5;entryY=0;entryDx=0;entryDy=0;" parent="1" source="3" target="wxR6bo94Sk2iI8-Y_fi0-154" edge="1">
          <mxGeometry width="100" height="100" relative="1" as="geometry">
            <mxPoint x="336.14285714285734" y="350.28571428571445" as="sourcePoint"/>
            <mxPoint x="427.57142857142867" y="431.7142857142858" as="targetPoint"/>
            <Array as="points">
              <mxPoint x="552" y="390"/>
              <mxPoint x="300" y="411"/>
              <mxPoint x="150" y="351"/>
              <mxPoint x="150" y="381"/>
              <mxPoint x="450" y="11"/>
            </Array>
          </mxGeometry>
        </mxCell>
        <mxCell id="wxR6bo94Sk2iI8-Y_fi0-158" value="Create" style="text;html=1;resizable=0;points=[];align=center;verticalAlign=middle;labelBackgroundColor=#ffffff;" parent="wxR6bo94Sk2iI8-Y_fi0-157" vertex="1" connectable="0">
          <mxGeometry x="0.0037" y="-3" relative="1" as="geometry">
            <mxPoint x="38.5" y="6.5" as="offset"/>
          </mxGeometry>
        </mxCell>
        <mxCell id="wxR6bo94Sk2iI8-Y_fi0-159" value="" style="edgeStyle=elbowEdgeStyle;elbow=horizontal;exitX=0.5;exitY=1;strokeColor=#990000;strokeWidth=2;exitDx=0;exitDy=0;entryX=1;entryY=0.5;entryDx=0;entryDy=0;" parent="1" source="wxR6bo94Sk2iI8-Y_fi0-156" target="wxR6bo94Sk2iI8-Y_fi0-155" edge="1">
          <mxGeometry width="100" height="100" relative="1" as="geometry">
            <mxPoint x="336.14285714285734" y="350.28571428571445" as="sourcePoint"/>
            <mxPoint x="427.57142857142867" y="431.7142857142858" as="targetPoint"/>
            <Array as="points">
              <mxPoint x="655" y="430"/>
              <mxPoint x="300" y="411"/>
              <mxPoint x="150" y="351"/>
              <mxPoint x="150" y="381"/>
              <mxPoint x="450" y="11"/>
            </Array>
          </mxGeometry>
        </mxCell>
        <mxCell id="wxR6bo94Sk2iI8-Y_fi0-160" value="watch" style="text;html=1;resizable=0;points=[];align=center;verticalAlign=middle;labelBackgroundColor=#ffffff;" parent="wxR6bo94Sk2iI8-Y_fi0-159" vertex="1" connectable="0">
          <mxGeometry x="-0.2551" y="-2" relative="1" as="geometry">
            <mxPoint x="27" y="-5.5" as="offset"/>
          </mxGeometry>
        </mxCell>
        <mxCell id="wxR6bo94Sk2iI8-Y_fi0-164" value="" style="edgeStyle=elbowEdgeStyle;elbow=horizontal;endArrow=classic;html=1;strokeColor=#7D0040;strokeWidth=2;exitX=0.5;exitY=1;exitDx=0;exitDy=0;" parent="1" source="wxR6bo94Sk2iI8-Y_fi0-156" target="wxR6bo94Sk2iI8-Y_fi0-118" edge="1">
          <mxGeometry width="50" height="50" relative="1" as="geometry">
            <mxPoint x="700" y="370" as="sourcePoint"/>
            <mxPoint x="740" y="320" as="targetPoint"/>
          </mxGeometry>
        </mxCell>
        <mxCell id="wxR6bo94Sk2iI8-Y_fi0-165" value="helm v3" style="text;html=1;resizable=0;points=[];align=center;verticalAlign=middle;labelBackgroundColor=#ffffff;" parent="wxR6bo94Sk2iI8-Y_fi0-164" vertex="1" connectable="0">
          <mxGeometry x="0.1635" y="1" relative="1" as="geometry">
            <mxPoint x="30.5" y="15" as="offset"/>
          </mxGeometry>
        </mxCell>
        <mxCell id="wxR6bo94Sk2iI8-Y_fi0-166" value="" style="edgeStyle=elbowEdgeStyle;elbow=vertical;endArrow=classic;html=1;strokeColor=#7D0040;strokeWidth=2;exitX=0.5;exitY=1;exitDx=0;exitDy=0;entryX=0.5;entryY=0;entryDx=0;entryDy=0;" parent="1" source="wxR6bo94Sk2iI8-Y_fi0-110" target="3" edge="1">
          <mxGeometry width="50" height="50" relative="1" as="geometry">
            <mxPoint x="260" y="190" as="sourcePoint"/>
            <mxPoint x="310" y="140" as="targetPoint"/>
          </mxGeometry>
        </mxCell>
        <mxCell id="wxR6bo94Sk2iI8-Y_fi0-167" value="Get" style="text;html=1;resizable=0;points=[];align=center;verticalAlign=middle;labelBackgroundColor=#ffffff;" parent="wxR6bo94Sk2iI8-Y_fi0-166" vertex="1" connectable="0">
          <mxGeometry x="0.3394" y="-3" relative="1" as="geometry">
            <mxPoint x="9.5" y="-7" as="offset"/>
          </mxGeometry>
        </mxCell>
        <mxCell id="wxR6bo94Sk2iI8-Y_fi0-173" value="" style="edgeStyle=segmentEdgeStyle;endArrow=classic;html=1;strokeColor=#7D0040;strokeWidth=2;entryX=0.5;entryY=0;entryDx=0;entryDy=0;" parent="1" edge="1">
          <mxGeometry width="50" height="50" relative="1" as="geometry">
            <mxPoint x="288" y="510" as="sourcePoint"/>
            <mxPoint x="572.7142857142858" y="600.2857142857144" as="targetPoint"/>
          </mxGeometry>
        </mxCell>
      </root>
    </mxGraphModel>
  </diagram>
  <diagram id="LDCZQ60Sdhj_1A-4zf41" name="Page-2">
    <mxGraphModel dx="946" dy="542" grid="1" gridSize="10" guides="1" tooltips="1" connect="1" arrows="1" fold="1" page="1" pageScale="1" pageWidth="827" pageHeight="1169" math="0" shadow="0">
      <root>
        <mxCell id="2m8XpC0xpUa-uAtMWpxe-0"/>
        <mxCell id="2m8XpC0xpUa-uAtMWpxe-1" parent="2m8XpC0xpUa-uAtMWpxe-0"/>
        <mxCell id="xcBCkcp_vozHjgHlFZ-i-0" value="fed-controller 工作流程" style="swimlane;html=1;childLayout=stackLayout;startSize=20;rounded=0;shadow=0;labelBackgroundColor=none;strokeColor=#000000;strokeWidth=1;fillColor=#ffffff;fontFamily=Verdana;fontSize=8;fontColor=#000000;align=center;" parent="2m8XpC0xpUa-uAtMWpxe-1" vertex="1">
          <mxGeometry x="27" y="237" width="690" height="630" as="geometry"/>
        </mxCell>
        <mxCell id="xcBCkcp_vozHjgHlFZ-i-1" value="CRD 资源" style="swimlane;html=1;startSize=20;" parent="xcBCkcp_vozHjgHlFZ-i-0" vertex="1">
          <mxGeometry y="20" width="160" height="610" as="geometry"/>
        </mxCell>
        <mxCell id="xcBCkcp_vozHjgHlFZ-i-2" value="alauda-fed" style="rounded=1;whiteSpace=wrap;html=1;shadow=0;labelBackgroundColor=none;strokeColor=#000000;strokeWidth=1;fillColor=#ffffff;fontFamily=Verdana;fontSize=8;fontColor=#000000;align=center;" parent="xcBCkcp_vozHjgHlFZ-i-1" vertex="1">
          <mxGeometry x="30" y="70" width="100" height="60" as="geometry"/>
        </mxCell>
        <mxCell id="xcBCkcp_vozHjgHlFZ-i-20" value="helmrequest" style="rounded=1;whiteSpace=wrap;html=1;" parent="xcBCkcp_vozHjgHlFZ-i-1" vertex="1">
          <mxGeometry x="20" y="361" width="100" height="60" as="geometry"/>
        </mxCell>
        <mxCell id="xcBCkcp_vozHjgHlFZ-i-4" style="edgeStyle=orthogonalEdgeStyle;rounded=1;html=1;labelBackgroundColor=none;startArrow=none;startFill=0;startSize=5;endArrow=classicThin;endFill=1;endSize=5;jettySize=auto;orthogonalLoop=1;strokeColor=#000000;strokeWidth=1;fontFamily=Verdana;fontSize=8;fontColor=#000000;" parent="xcBCkcp_vozHjgHlFZ-i-0" target="xcBCkcp_vozHjgHlFZ-i-8" edge="1">
          <mxGeometry relative="1" as="geometry">
            <mxPoint x="130" y="123" as="sourcePoint"/>
          </mxGeometry>
        </mxCell>
        <mxCell id="xcBCkcp_vozHjgHlFZ-i-5" value="fed-controller" style="swimlane;html=1;startSize=20;" parent="xcBCkcp_vozHjgHlFZ-i-0" vertex="1">
          <mxGeometry x="160" y="20" width="330" height="610" as="geometry"/>
        </mxCell>
        <mxCell id="xcBCkcp_vozHjgHlFZ-i-6" value="否" style="edgeStyle=orthogonalEdgeStyle;rounded=0;html=1;jettySize=auto;orthogonalLoop=1;exitX=0.5;exitY=1;exitDx=0;exitDy=0;" parent="xcBCkcp_vozHjgHlFZ-i-5" source="xcBCkcp_vozHjgHlFZ-i-13" edge="1">
          <mxGeometry relative="1" as="geometry">
            <mxPoint x="90" y="230" as="sourcePoint"/>
            <mxPoint x="120" y="261" as="targetPoint"/>
          </mxGeometry>
        </mxCell>
        <mxCell id="xcBCkcp_vozHjgHlFZ-i-7" value="" style="edgeStyle=orthogonalEdgeStyle;rounded=0;html=1;jettySize=auto;orthogonalLoop=1;" parent="xcBCkcp_vozHjgHlFZ-i-5" source="xcBCkcp_vozHjgHlFZ-i-8" edge="1">
          <mxGeometry relative="1" as="geometry">
            <mxPoint x="120" y="170" as="targetPoint"/>
          </mxGeometry>
        </mxCell>
        <mxCell id="xcBCkcp_vozHjgHlFZ-i-8" value="watch&amp;nbsp;&lt;br&gt;alauda-fed crd" style="rounded=1;whiteSpace=wrap;html=1;shadow=0;labelBackgroundColor=none;strokeColor=#000000;strokeWidth=1;fillColor=#ffffff;fontFamily=Verdana;fontSize=8;fontColor=#000000;align=center;" parent="xcBCkcp_vozHjgHlFZ-i-5" vertex="1">
          <mxGeometry x="70" y="73" width="100" height="60" as="geometry"/>
        </mxCell>
        <mxCell id="xcBCkcp_vozHjgHlFZ-i-31" value="" style="edgeStyle=orthogonalEdgeStyle;rounded=0;orthogonalLoop=1;jettySize=auto;html=1;strokeColor=#000000;strokeWidth=1;" parent="xcBCkcp_vozHjgHlFZ-i-5" source="xcBCkcp_vozHjgHlFZ-i-13" edge="1">
          <mxGeometry relative="1" as="geometry">
            <mxPoint x="263" y="360" as="targetPoint"/>
            <Array as="points">
              <mxPoint x="263" y="198"/>
            </Array>
          </mxGeometry>
        </mxCell>
        <mxCell id="xcBCkcp_vozHjgHlFZ-i-32" value="是" style="text;html=1;resizable=0;points=[];align=center;verticalAlign=middle;labelBackgroundColor=#ffffff;" parent="xcBCkcp_vozHjgHlFZ-i-31" vertex="1" connectable="0">
          <mxGeometry x="-0.35" y="-1" relative="1" as="geometry">
            <mxPoint y="1" as="offset"/>
          </mxGeometry>
        </mxCell>
        <mxCell id="xcBCkcp_vozHjgHlFZ-i-13" value="主集群&lt;br&gt;服务可达" style="rhombus;whiteSpace=wrap;html=1;" parent="xcBCkcp_vozHjgHlFZ-i-5" vertex="1">
          <mxGeometry x="80" y="170" width="80" height="55" as="geometry"/>
        </mxCell>
        <mxCell id="xcBCkcp_vozHjgHlFZ-i-29" value="否" style="edgeStyle=orthogonalEdgeStyle;rounded=0;orthogonalLoop=1;jettySize=auto;html=1;strokeColor=#000000;strokeWidth=1;" parent="xcBCkcp_vozHjgHlFZ-i-5" source="xcBCkcp_vozHjgHlFZ-i-26" edge="1">
          <mxGeometry relative="1" as="geometry">
            <mxPoint x="120" y="360" as="targetPoint"/>
          </mxGeometry>
        </mxCell>
        <mxCell id="xcBCkcp_vozHjgHlFZ-i-37" value="5秒再检查一次" style="edgeStyle=orthogonalEdgeStyle;rounded=0;orthogonalLoop=1;jettySize=auto;html=1;strokeColor=#000000;strokeWidth=1;entryX=0;entryY=0.5;entryDx=0;entryDy=0;exitX=0;exitY=0.5;exitDx=0;exitDy=0;" parent="xcBCkcp_vozHjgHlFZ-i-5" source="xcBCkcp_vozHjgHlFZ-i-26" target="xcBCkcp_vozHjgHlFZ-i-13" edge="1">
          <mxGeometry x="-0.0696" y="-50" relative="1" as="geometry">
            <mxPoint x="68.72727272727275" y="288" as="sourcePoint"/>
            <mxPoint x="68" y="198" as="targetPoint"/>
            <Array as="points">
              <mxPoint x="18" y="288"/>
              <mxPoint x="18" y="198"/>
            </Array>
            <mxPoint as="offset"/>
          </mxGeometry>
        </mxCell>
        <mxCell id="xcBCkcp_vozHjgHlFZ-i-40" value="是" style="text;html=1;resizable=0;points=[];align=center;verticalAlign=middle;labelBackgroundColor=#ffffff;" parent="xcBCkcp_vozHjgHlFZ-i-37" vertex="1" connectable="0">
          <mxGeometry x="-0.5234" y="1" relative="1" as="geometry">
            <mxPoint as="offset"/>
          </mxGeometry>
        </mxCell>
        <mxCell id="xcBCkcp_vozHjgHlFZ-i-26" value="安装了&lt;br&gt;联邦集群" style="rhombus;whiteSpace=wrap;html=1;" parent="xcBCkcp_vozHjgHlFZ-i-5" vertex="1">
          <mxGeometry x="80" y="260" width="80" height="55" as="geometry"/>
        </mxCell>
        <mxCell id="xcBCkcp_vozHjgHlFZ-i-44" value="" style="edgeStyle=orthogonalEdgeStyle;rounded=0;orthogonalLoop=1;jettySize=auto;html=1;strokeColor=#000000;strokeWidth=1;" parent="xcBCkcp_vozHjgHlFZ-i-5" source="xcBCkcp_vozHjgHlFZ-i-33" target="xcBCkcp_vozHjgHlFZ-i-43" edge="1">
          <mxGeometry relative="1" as="geometry"/>
        </mxCell>
        <mxCell id="xcBCkcp_vozHjgHlFZ-i-33" value="联邦集群同步" style="rounded=1;whiteSpace=wrap;html=1;fillColor=#ffffff;" parent="xcBCkcp_vozHjgHlFZ-i-5" vertex="1">
          <mxGeometry x="219" y="364" width="90" height="60" as="geometry"/>
        </mxCell>
        <mxCell id="xcBCkcp_vozHjgHlFZ-i-43" value="修改clusterregustry&lt;br&gt;label" style="rounded=1;whiteSpace=wrap;html=1;fillColor=#ffffff;" parent="xcBCkcp_vozHjgHlFZ-i-5" vertex="1">
          <mxGeometry x="219" y="473" width="90" height="60" as="geometry"/>
        </mxCell>
        <mxCell id="xcBCkcp_vozHjgHlFZ-i-34" value="准备helmrequest" style="rounded=1;whiteSpace=wrap;html=1;fillColor=#ffffff;" parent="xcBCkcp_vozHjgHlFZ-i-5" vertex="1">
          <mxGeometry x="75" y="361" width="90" height="60" as="geometry"/>
        </mxCell>
        <mxCell id="xcBCkcp_vozHjgHlFZ-i-15" value="kubefed-v2" style="swimlane;html=1;startSize=20;" parent="xcBCkcp_vozHjgHlFZ-i-0" vertex="1">
          <mxGeometry x="490" y="20" width="200" height="610" as="geometry"/>
        </mxCell>
        <mxCell id="xcBCkcp_vozHjgHlFZ-i-46" value="&lt;pre style=&quot;background-color: #ffffff ; color: #121314 ; font-family: &amp;#34;menlo&amp;#34; ; font-size: 9.0pt&quot;&gt;&lt;pre style=&quot;font-family: &amp;#34;menlo&amp;#34; ; font-size: 9pt&quot;&gt;Unjoin&lt;span style=&quot;color: #36666b&quot;&gt;/JoinCluster&lt;/span&gt;&lt;/pre&gt;&lt;/pre&gt;" style="rounded=1;whiteSpace=wrap;html=1;fillColor=#ffffff;" parent="xcBCkcp_vozHjgHlFZ-i-15" vertex="1">
          <mxGeometry x="33" y="364" width="150" height="60" as="geometry"/>
        </mxCell>
        <mxCell id="xcBCkcp_vozHjgHlFZ-i-47" value="" style="edgeStyle=orthogonalEdgeStyle;rounded=0;orthogonalLoop=1;jettySize=auto;html=1;strokeColor=#000000;strokeWidth=1;" parent="xcBCkcp_vozHjgHlFZ-i-0" source="xcBCkcp_vozHjgHlFZ-i-33" target="xcBCkcp_vozHjgHlFZ-i-46" edge="1">
          <mxGeometry relative="1" as="geometry"/>
        </mxCell>
      </root>
    </mxGraphModel>
  </diagram>
  <diagram id="EecRNZHdEs2lsMuyWzXI" name="Page-3">
    <mxGraphModel dx="926" dy="-598" grid="1" gridSize="10" guides="1" tooltips="1" connect="1" arrows="1" fold="1" page="1" pageScale="1" pageWidth="827" pageHeight="1169" math="0" shadow="0">
      <root>
        <mxCell id="_mSM6B-NQI26tlZ7kZIr-0"/>
        <mxCell id="_mSM6B-NQI26tlZ7kZIr-1" parent="_mSM6B-NQI26tlZ7kZIr-0"/>
        <mxCell id="AXZKIkYAptBUNmVJRWu4-0" value="project crd&lt;br&gt;联邦：c1,c2; c3&lt;br&gt;（普通：c4）" style="rounded=1;whiteSpace=wrap;html=1;shadow=0;labelBackgroundColor=none;strokeColor=#000000;strokeWidth=1;fillColor=#ffffff;fontFamily=Verdana;fontSize=8;fontColor=#000000;align=center;" parent="_mSM6B-NQI26tlZ7kZIr-1" vertex="1">
          <mxGeometry x="285" y="1420" width="100" height="60" as="geometry"/>
        </mxCell>
        <mxCell id="AXZKIkYAptBUNmVJRWu4-2" style="edgeStyle=orthogonalEdgeStyle;rounded=1;html=1;labelBackgroundColor=none;startArrow=none;startFill=0;startSize=5;endArrow=classicThin;endFill=1;endSize=5;jettySize=auto;orthogonalLoop=1;strokeColor=#000000;strokeWidth=1;fontFamily=Verdana;fontSize=8;fontColor=#000000;" parent="_mSM6B-NQI26tlZ7kZIr-1" target="AXZKIkYAptBUNmVJRWu4-4" edge="1">
          <mxGeometry relative="1" as="geometry">
            <mxPoint x="385" y="1450" as="sourcePoint"/>
          </mxGeometry>
        </mxCell>
        <mxCell id="zz9_mJ1Wflucqm5hO163-1" value="" style="edgeStyle=orthogonalEdgeStyle;rounded=0;orthogonalLoop=1;jettySize=auto;html=1;" edge="1" parent="_mSM6B-NQI26tlZ7kZIr-1" source="AXZKIkYAptBUNmVJRWu4-4" target="zz9_mJ1Wflucqm5hO163-0">
          <mxGeometry relative="1" as="geometry"/>
        </mxCell>
        <mxCell id="AXZKIkYAptBUNmVJRWu4-4" value="watch&amp;nbsp;&lt;br&gt;project crd" style="rounded=1;whiteSpace=wrap;html=1;shadow=0;labelBackgroundColor=none;strokeColor=#000000;strokeWidth=1;fillColor=#ffffff;fontFamily=Verdana;fontSize=8;fontColor=#000000;align=center;" parent="_mSM6B-NQI26tlZ7kZIr-1" vertex="1">
          <mxGeometry x="442" y="1420" width="100" height="60" as="geometry"/>
        </mxCell>
        <mxCell id="zz9_mJ1Wflucqm5hO163-3" value="" style="edgeStyle=orthogonalEdgeStyle;rounded=0;orthogonalLoop=1;jettySize=auto;html=1;" edge="1" parent="_mSM6B-NQI26tlZ7kZIr-1" source="zz9_mJ1Wflucqm5hO163-0" target="zz9_mJ1Wflucqm5hO163-2">
          <mxGeometry relative="1" as="geometry"/>
        </mxCell>
        <mxCell id="zz9_mJ1Wflucqm5hO163-0" value="提取出当前&lt;br&gt;联邦集群列表和成员集群&lt;br&gt;f1；f2&lt;br&gt;c1； c3，c4" style="rounded=1;whiteSpace=wrap;html=1;shadow=0;labelBackgroundColor=none;strokeColor=#000000;strokeWidth=1;fillColor=#ffffff;fontFamily=Verdana;fontSize=8;fontColor=#000000;align=center;" vertex="1" parent="_mSM6B-NQI26tlZ7kZIr-1">
          <mxGeometry x="423" y="1530" width="138" height="64" as="geometry"/>
        </mxCell>
        <mxCell id="zz9_mJ1Wflucqm5hO163-4" value="" style="edgeStyle=orthogonalEdgeStyle;rounded=0;orthogonalLoop=1;jettySize=auto;html=1;" edge="1" parent="_mSM6B-NQI26tlZ7kZIr-1">
          <mxGeometry relative="1" as="geometry">
            <mxPoint x="492" y="1850" as="sourcePoint"/>
            <mxPoint x="492" y="1910" as="targetPoint"/>
          </mxGeometry>
        </mxCell>
        <mxCell id="zz9_mJ1Wflucqm5hO163-8" value="否" style="text;html=1;resizable=0;points=[];align=center;verticalAlign=middle;labelBackgroundColor=#ffffff;" vertex="1" connectable="0" parent="zz9_mJ1Wflucqm5hO163-4">
          <mxGeometry x="0.1333" relative="1" as="geometry">
            <mxPoint as="offset"/>
          </mxGeometry>
        </mxCell>
        <mxCell id="zz9_mJ1Wflucqm5hO163-6" value="" style="edgeStyle=orthogonalEdgeStyle;rounded=0;orthogonalLoop=1;jettySize=auto;html=1;" edge="1" parent="_mSM6B-NQI26tlZ7kZIr-1" source="zz9_mJ1Wflucqm5hO163-2">
          <mxGeometry relative="1" as="geometry">
            <mxPoint x="492" y="1800" as="targetPoint"/>
          </mxGeometry>
        </mxCell>
        <mxCell id="zz9_mJ1Wflucqm5hO163-2" value="发现c4 属于新增联邦集群，发现c2 为移除联邦集群，&lt;br&gt;" style="rounded=1;whiteSpace=wrap;html=1;shadow=0;labelBackgroundColor=none;strokeColor=#000000;strokeWidth=1;fillColor=#ffffff;fontFamily=Verdana;fontSize=8;fontColor=#000000;align=center;" vertex="1" parent="_mSM6B-NQI26tlZ7kZIr-1">
          <mxGeometry x="411" y="1673" width="162" height="57" as="geometry"/>
        </mxCell>
        <mxCell id="AXZKIkYAptBUNmVJRWu4-10" value="同步projectbinding&lt;br&gt;project quota" style="rounded=1;whiteSpace=wrap;html=1;fillColor=#ffffff;" parent="_mSM6B-NQI26tlZ7kZIr-1" vertex="1">
          <mxGeometry x="448" y="2010" width="90" height="51" as="geometry"/>
        </mxCell>
        <mxCell id="zz9_mJ1Wflucqm5hO163-10" value="" style="edgeStyle=orthogonalEdgeStyle;rounded=0;orthogonalLoop=1;jettySize=auto;html=1;" edge="1" parent="_mSM6B-NQI26tlZ7kZIr-1" source="zz9_mJ1Wflucqm5hO163-7">
          <mxGeometry relative="1" as="geometry">
            <mxPoint x="612" y="1820" as="targetPoint"/>
          </mxGeometry>
        </mxCell>
        <mxCell id="zz9_mJ1Wflucqm5hO163-13" value="是" style="text;html=1;resizable=0;points=[];align=center;verticalAlign=middle;labelBackgroundColor=#ffffff;" vertex="1" connectable="0" parent="zz9_mJ1Wflucqm5hO163-10">
          <mxGeometry x="-0.4" y="2" relative="1" as="geometry">
            <mxPoint as="offset"/>
          </mxGeometry>
        </mxCell>
        <mxCell id="zz9_mJ1Wflucqm5hO163-7" value="c4之前&lt;br&gt;绑定项目" style="rhombus;whiteSpace=wrap;html=1;" vertex="1" parent="_mSM6B-NQI26tlZ7kZIr-1">
          <mxGeometry x="452" y="1780" width="80" height="80" as="geometry"/>
        </mxCell>
        <mxCell id="zz9_mJ1Wflucqm5hO163-18" value="" style="edgeStyle=orthogonalEdgeStyle;rounded=0;orthogonalLoop=1;jettySize=auto;html=1;entryX=1;entryY=0.5;entryDx=0;entryDy=0;" edge="1" parent="_mSM6B-NQI26tlZ7kZIr-1" source="zz9_mJ1Wflucqm5hO163-11" target="AXZKIkYAptBUNmVJRWu4-10">
          <mxGeometry relative="1" as="geometry">
            <mxPoint x="691" y="1928.5" as="targetPoint"/>
            <Array as="points">
              <mxPoint x="691" y="2036"/>
            </Array>
          </mxGeometry>
        </mxCell>
        <mxCell id="zz9_mJ1Wflucqm5hO163-11" value="更新这个cluset type&lt;span style=&quot;color: rgba(0 , 0 , 0 , 0) ; font-family: monospace ; font-size: 0px ; white-space: nowrap&quot;&gt;%3CmxGraphModel%3E%3Croot%3E%3CmxCell%20id%3D%220%22%2F%3E%3CmxCell%20id%3D%221%22%20parent%3D%220%22%2F%3E%3CmxCell%20id%3D%222%22%20value%3D%22%E5%8F%91%E7%8E%B0c4%20%E5%B1%9E%E4%BA%8E%E6%96%B0%E5%A2%9E%E8%81%94%E9%82%A6%E9%9B%86%E7%BE%A4%EF%BC%8C%E5%8F%91%E7%8E%B0c2%20%E4%B8%BA%E7%A7%BB%E9%99%A4%E8%81%94%E9%82%A6%E9%9B%86%E7%BE%A4%EF%BC%8C%26lt%3Bbr%26gt%3B%22%20style%3D%22rounded%3D1%3BwhiteSpace%3Dwrap%3Bhtml%3D1%3Bshadow%3D0%3BlabelBackgroundColor%3Dnone%3BstrokeColor%3D%23000000%3BstrokeWidth%3D1%3BfillColor%3D%23ffffff%3BfontFamily%3DVerdana%3BfontSize%3D8%3BfontColor%3D%23000000%3Balign%3Dcenter%3B%22%20vertex%3D%221%22%20parent%3D%221%22%3E%3CmxGeometry%20x%3D%22411%22%20y%3D%221673%22%20width%3D%22162%22%20height%3D%2257%22%20as%3D%22geometry%22%2F%3E%3C%2FmxCell%3E%3C%2Froot%3E%3C%2FmxGraphModel%3E&lt;/span&gt;" style="rounded=1;whiteSpace=wrap;html=1;shadow=0;labelBackgroundColor=none;strokeColor=#000000;strokeWidth=1;fillColor=#ffffff;fontFamily=Verdana;fontSize=8;fontColor=#000000;align=center;" vertex="1" parent="_mSM6B-NQI26tlZ7kZIr-1">
          <mxGeometry x="610" y="1791.5" width="162" height="57" as="geometry"/>
        </mxCell>
        <mxCell id="zz9_mJ1Wflucqm5hO163-16" value="" style="edgeStyle=orthogonalEdgeStyle;rounded=0;orthogonalLoop=1;jettySize=auto;html=1;" edge="1" parent="_mSM6B-NQI26tlZ7kZIr-1" source="zz9_mJ1Wflucqm5hO163-15" target="AXZKIkYAptBUNmVJRWu4-10">
          <mxGeometry relative="1" as="geometry"/>
        </mxCell>
        <mxCell id="zz9_mJ1Wflucqm5hO163-15" value="新增c4 cluster，type为member" style="rounded=1;whiteSpace=wrap;html=1;" vertex="1" parent="_mSM6B-NQI26tlZ7kZIr-1">
          <mxGeometry x="444" y="1910" width="98" height="50" as="geometry"/>
        </mxCell>
      </root>
    </mxGraphModel>
  </diagram>
  <diagram id="MqwjeMZIls87_nzouPuM" name="Page-4">
    <mxGraphModel dx="946" dy="-578" grid="1" gridSize="10" guides="1" tooltips="1" connect="1" arrows="1" fold="1" page="1" pageScale="1" pageWidth="827" pageHeight="1169" math="0" shadow="0">
      <root>
        <mxCell id="EGjRlHHWaPqtvNqLX4Rf-0"/>
        <mxCell id="EGjRlHHWaPqtvNqLX4Rf-1" parent="EGjRlHHWaPqtvNqLX4Rf-0"/>
        <mxCell id="EGjRlHHWaPqtvNqLX4Rf-2" value="查询项目详情" style="rounded=1;whiteSpace=wrap;html=1;" parent="EGjRlHHWaPqtvNqLX4Rf-1" vertex="1">
          <mxGeometry x="120" y="1420" width="100" height="60" as="geometry"/>
        </mxCell>
        <mxCell id="EGjRlHHWaPqtvNqLX4Rf-3" value="" style="edgeStyle=orthogonalEdgeStyle;rounded=0;orthogonalLoop=1;jettySize=auto;html=1;entryX=0.011;entryY=0.4;entryDx=0;entryDy=0;entryPerimeter=0;" parent="EGjRlHHWaPqtvNqLX4Rf-1" source="EGjRlHHWaPqtvNqLX4Rf-2" target="EGjRlHHWaPqtvNqLX4Rf-6" edge="1">
          <mxGeometry relative="1" as="geometry">
            <mxPoint x="290" y="1185" as="targetPoint"/>
          </mxGeometry>
        </mxCell>
        <mxCell id="EGjRlHHWaPqtvNqLX4Rf-4" value="判断是否是联邦集群" style="rhombus;whiteSpace=wrap;html=1;" parent="EGjRlHHWaPqtvNqLX4Rf-1" vertex="1">
          <mxGeometry x="295" y="1526" width="120" height="70" as="geometry"/>
        </mxCell>
        <mxCell id="EGjRlHHWaPqtvNqLX4Rf-5" value="" style="edgeStyle=orthogonalEdgeStyle;rounded=0;orthogonalLoop=1;jettySize=auto;html=1;" parent="EGjRlHHWaPqtvNqLX4Rf-1" source="EGjRlHHWaPqtvNqLX4Rf-6" target="EGjRlHHWaPqtvNqLX4Rf-4" edge="1">
          <mxGeometry relative="1" as="geometry"/>
        </mxCell>
        <mxCell id="EGjRlHHWaPqtvNqLX4Rf-6" value="遍历集群成员" style="rounded=1;whiteSpace=wrap;html=1;fillColor=#ffffff;" parent="EGjRlHHWaPqtvNqLX4Rf-1" vertex="1">
          <mxGeometry x="310" y="1426" width="90" height="60" as="geometry"/>
        </mxCell>
        <mxCell id="EGjRlHHWaPqtvNqLX4Rf-7" value="" style="edgeStyle=orthogonalEdgeStyle;rounded=0;orthogonalLoop=1;jettySize=auto;html=1;" parent="EGjRlHHWaPqtvNqLX4Rf-1" source="EGjRlHHWaPqtvNqLX4Rf-8" target="EGjRlHHWaPqtvNqLX4Rf-9" edge="1">
          <mxGeometry relative="1" as="geometry"/>
        </mxCell>
        <mxCell id="EGjRlHHWaPqtvNqLX4Rf-8" value="遍历联邦成员" style="rounded=1;whiteSpace=wrap;html=1;fillColor=#ffffff;" parent="EGjRlHHWaPqtvNqLX4Rf-1" vertex="1">
          <mxGeometry x="310" y="1770" width="90" height="60" as="geometry"/>
        </mxCell>
        <mxCell id="EGjRlHHWaPqtvNqLX4Rf-9" value="查询对应集群的&lt;br&gt;projectquota" style="rounded=1;whiteSpace=wrap;html=1;fillColor=#ffffff;" parent="EGjRlHHWaPqtvNqLX4Rf-1" vertex="1">
          <mxGeometry x="457" y="1770" width="90" height="60" as="geometry"/>
        </mxCell>
        <mxCell id="EGjRlHHWaPqtvNqLX4Rf-10" value="" style="edgeStyle=orthogonalEdgeStyle;rounded=0;orthogonalLoop=1;jettySize=auto;html=1;entryX=0.5;entryY=0;entryDx=0;entryDy=0;" parent="EGjRlHHWaPqtvNqLX4Rf-1" source="EGjRlHHWaPqtvNqLX4Rf-6" target="EGjRlHHWaPqtvNqLX4Rf-9" edge="1">
          <mxGeometry relative="1" as="geometry">
            <mxPoint x="480" y="1456" as="targetPoint"/>
          </mxGeometry>
        </mxCell>
        <mxCell id="EGjRlHHWaPqtvNqLX4Rf-11" value="" style="edgeStyle=orthogonalEdgeStyle;rounded=0;orthogonalLoop=1;jettySize=auto;html=1;" parent="EGjRlHHWaPqtvNqLX4Rf-1" source="EGjRlHHWaPqtvNqLX4Rf-12" target="EGjRlHHWaPqtvNqLX4Rf-8" edge="1">
          <mxGeometry relative="1" as="geometry"/>
        </mxCell>
        <mxCell id="EGjRlHHWaPqtvNqLX4Rf-12" value="查询联邦详情" style="rounded=1;whiteSpace=wrap;html=1;" parent="EGjRlHHWaPqtvNqLX4Rf-1" vertex="1">
          <mxGeometry x="305" y="1660" width="100" height="70" as="geometry"/>
        </mxCell>
        <mxCell id="EGjRlHHWaPqtvNqLX4Rf-13" value="" style="edgeStyle=orthogonalEdgeStyle;rounded=0;orthogonalLoop=1;jettySize=auto;html=1;entryX=0.5;entryY=0;entryDx=0;entryDy=0;" parent="EGjRlHHWaPqtvNqLX4Rf-1" source="EGjRlHHWaPqtvNqLX4Rf-4" target="EGjRlHHWaPqtvNqLX4Rf-12" edge="1">
          <mxGeometry relative="1" as="geometry">
            <mxPoint x="355" y="1633" as="targetPoint"/>
          </mxGeometry>
        </mxCell>
        <mxCell id="EGjRlHHWaPqtvNqLX4Rf-14" value="是" style="text;html=1;resizable=0;points=[];align=center;verticalAlign=middle;labelBackgroundColor=#ffffff;" parent="EGjRlHHWaPqtvNqLX4Rf-13" vertex="1" connectable="0">
          <mxGeometry x="0.05" y="4" relative="1" as="geometry">
            <mxPoint x="8" y="-2" as="offset"/>
          </mxGeometry>
        </mxCell>
      </root>
    </mxGraphModel>
  </diagram>
  <diagram id="TuUZfxDY7w5XcPGuLi_w" name="Page-5">
    <mxGraphModel dx="946" dy="-578" grid="1" gridSize="10" guides="1" tooltips="1" connect="1" arrows="1" fold="1" page="1" pageScale="1" pageWidth="827" pageHeight="1169" math="0" shadow="0">
      <root>
        <mxCell id="z23GKguaDXeZoZ1lCoOs-0"/>
        <mxCell id="z23GKguaDXeZoZ1lCoOs-1" parent="z23GKguaDXeZoZ1lCoOs-0"/>
        <mxCell id="z23GKguaDXeZoZ1lCoOs-2" value="获取联邦集群信息，同步修改project crd" style="rounded=1;whiteSpace=wrap;html=1;" vertex="1" parent="z23GKguaDXeZoZ1lCoOs-1">
          <mxGeometry x="248" y="1758" width="100" height="60" as="geometry"/>
        </mxCell>
        <mxCell id="z23GKguaDXeZoZ1lCoOs-3" value="" style="edgeStyle=orthogonalEdgeStyle;rounded=0;orthogonalLoop=1;jettySize=auto;html=1;" edge="1" parent="z23GKguaDXeZoZ1lCoOs-1" source="z23GKguaDXeZoZ1lCoOs-4">
          <mxGeometry relative="1" as="geometry">
            <mxPoint x="347" y="1788" as="targetPoint"/>
          </mxGeometry>
        </mxCell>
        <mxCell id="z23GKguaDXeZoZ1lCoOs-4" value="包含联邦成员集群" style="rhombus;whiteSpace=wrap;html=1;" vertex="1" parent="z23GKguaDXeZoZ1lCoOs-1">
          <mxGeometry x="427" y="1753" width="120" height="70" as="geometry"/>
        </mxCell>
      </root>
    </mxGraphModel>
  </diagram>
</mxfile>
